<svg width="8" height="8" viewBox="0 0 8 8" fill="none" xmlns="http://www.w3.org/2000/svg">
<path d="M4.16667 7.5H2.5V2.5H4.16667V3.33333C4.52193 2.88136 5.06068 2.61191 5.63542 2.59875C6.669 2.60449 7.503 3.44557 7.50001 4.47917V7.5H5.83333V4.6875C5.76668 4.22193 5.3674 3.87649 4.89708 3.8775C4.69137 3.884 4.49718 3.97407 4.35935 4.12693C4.22152 4.27978 4.15194 4.48221 4.16667 4.6875V7.5ZM1.66667 7.5H0V2.5H1.66667V7.5ZM0.833333 1.66667C0.373096 1.66667 0 1.29357 0 0.833333C0 0.373096 0.373096 0 0.833333 0C1.29357 0 1.66667 0.373096 1.66667 0.833333C1.66667 1.05435 1.57887 1.26631 1.42259 1.42259C1.26631 1.57887 1.05435 1.66667 0.833333 1.66667Z" fill="white"/>
</svg>
