<svg width="10" height="10" viewBox="0 0 10 10" fill="none" xmlns="http://www.w3.org/2000/svg">
<path d="M3.33373 5.0002C3.33373 4.07972 4.07972 3.33333 5.0002 3.33333C5.92068 3.33333 6.66707 4.07972 6.66707 5.0002C6.66707 5.92068 5.92068 6.66707 5.0002 6.66707C4.07972 6.66707 3.33373 5.92068 3.33373 5.0002ZM2.43266 5.0002C2.43266 6.41826 3.58214 7.56774 5.0002 7.56774C6.41826 7.56774 7.56774 6.41826 7.56774 5.0002C7.56774 3.58214 6.41826 2.43266 5.0002 2.43266C3.58214 2.43266 2.4327 3.58206 2.4327 5.0002H2.43266ZM7.0694 2.33085C7.06936 2.44953 7.1045 2.56555 7.17039 2.66425C7.23628 2.76295 7.32997 2.83989 7.43959 2.88535C7.54921 2.93081 7.66985 2.94274 7.78625 2.91964C7.90265 2.89653 8.00959 2.83943 8.09354 2.75554C8.17749 2.67166 8.23468 2.56477 8.25788 2.44839C8.28107 2.332 8.26924 2.21135 8.22387 2.1017C8.1785 1.99204 8.10163 1.8983 8.00298 1.83233C7.90434 1.76635 7.78834 1.73112 7.66967 1.73107H7.66943C7.51035 1.73114 7.35782 1.79435 7.24531 1.90681C7.13281 2.01927 7.06954 2.17178 7.0694 2.33085ZM2.98012 9.07028C2.49262 9.04808 2.22765 8.96688 2.05156 8.89828C1.81811 8.80739 1.65155 8.69915 1.47642 8.52426C1.30129 8.34938 1.19289 8.18297 1.1024 7.94952C1.03376 7.77351 0.952558 7.50846 0.930397 7.02096C0.906156 6.4939 0.901316 6.33557 0.901316 5.00028C0.901316 3.66499 0.906556 3.5071 0.930397 2.9796C0.952598 2.4921 1.0344 2.22757 1.1024 2.05104C1.19329 1.81759 1.30153 1.65103 1.47642 1.4759C1.65131 1.30077 1.81771 1.19237 2.05156 1.10188C2.22757 1.03324 2.49262 0.952038 2.98012 0.929877C3.50718 0.905636 3.66551 0.900796 5.0002 0.900796C6.33489 0.900796 6.49338 0.905956 7.02088 0.929957C7.50838 0.952158 7.77291 1.03396 7.94944 1.10196C8.18289 1.19245 8.34945 1.30109 8.52458 1.47598C8.69971 1.65087 8.80771 1.81767 8.8986 2.05112C8.96724 2.22713 9.04844 2.49218 9.0706 2.97968C9.09484 3.50718 9.09968 3.66507 9.09968 5.00036C9.09968 6.33565 9.09484 6.49354 9.0706 7.02104C9.0484 7.50854 8.9668 7.77351 8.8986 7.9496C8.80771 8.18305 8.69947 8.34962 8.52458 8.52434C8.34969 8.69907 8.18289 8.80747 7.94944 8.89836C7.77343 8.967 7.50838 9.0482 7.02088 9.07036C6.49382 9.09461 6.33549 9.09945 5.0002 9.09945C3.66491 9.09945 3.50702 9.09461 2.98012 9.07036V9.07028ZM2.93872 0.0302812C2.40642 0.0545222 2.04268 0.138926 1.72503 0.262531C1.39626 0.390176 1.11756 0.561423 0.839274 0.839274C0.560982 1.11713 0.390176 1.39586 0.262531 1.72503C0.138926 2.04288 0.0545222 2.40642 0.0302812 2.93872C0.00564026 3.47186 0 3.64231 0 5.0002C0 6.3581 0.00564026 6.52854 0.0302812 7.06168C0.0545222 7.59403 0.138926 7.95752 0.262531 8.27537C0.390176 8.60415 0.561022 8.8834 0.839274 9.16113C1.11752 9.43886 1.39586 9.60987 1.72503 9.73787C2.04328 9.86148 2.40642 9.94588 2.93872 9.97012C3.47214 9.99436 3.64231 10.0004 5.0002 10.0004C6.35809 10.0004 6.52854 9.99476 7.06168 9.97012C7.59402 9.94588 7.95752 9.86148 8.27537 9.73787C8.60415 9.60987 8.88284 9.43898 9.16113 9.16113C9.43942 8.88328 9.60987 8.60415 9.73787 8.27537C9.86147 7.95752 9.94628 7.59399 9.97012 7.06168C9.99436 6.52814 10 6.3581 10 5.0002C10 3.64231 9.99436 3.47186 9.97012 2.93872C9.94588 2.40638 9.86147 2.04268 9.73787 1.72503C9.60987 1.39626 9.43898 1.11757 9.16113 0.839274C8.88328 0.560983 8.60414 0.390176 8.27577 0.262531C7.95752 0.138926 7.59398 0.0541222 7.06208 0.0302812C6.52886 0.00592027 6.3585 0 5.0008 0C3.64311 0 3.47234 0.00564026 2.93892 0.0302812" fill="white"/>
</svg>
